<svg aria-hidden="true" style="position: absolute; width: 0; height: 0; overflow: hidden;" version="1.1" xmlns="http://www.w3.org/2000/svg" xmlns:xlink="http://www.w3.org/1999/xlink">
<defs>
<symbol id="icon-shopping-cart" viewBox="0 0 32 32">
<path d="M30.284 5.436c-0.737-0.88-1.837-1.436-3.066-1.436-0.002 0-0.003 0-0.005 0h-21.557l-0.056-0.468c-0.242-1.998-1.927-3.531-3.971-3.532h-0.296c-0.736 0-1.333 0.597-1.333 1.333s0.597 1.333 1.333 1.333v0h0.296c0.681 0 1.243 0.511 1.323 1.171l0.001 0.006 1.835 15.6c0.402 3.332 3.213 5.889 6.621 5.889 0 0 0 0 0 0h13.924c0.736 0 1.333-0.597 1.333-1.333s-0.597-1.333-1.333-1.333v0h-13.924c-1.727-0.005-3.196-1.103-3.751-2.639l-0.009-0.028h15.893c0 0 0 0 0 0 3.264 0 5.98-2.345 6.555-5.443l0.006-0.041 1.047-5.805c0.041-0.214 0.064-0.461 0.064-0.712 0-0.978-0.352-1.874-0.936-2.568l0.005 0.006z"></path>
<path d="M12 29.333c0 1.473-1.194 2.667-2.667 2.667s-2.667-1.194-2.667-2.667c0-1.473 1.194-2.667 2.667-2.667s2.667 1.194 2.667 2.667z"></path>
<path d="M25.333 29.333c0 1.473-1.194 2.667-2.667 2.667s-2.667-1.194-2.667-2.667c0-1.473 1.194-2.667 2.667-2.667s2.667 1.194 2.667 2.667z"></path>
</symbol>
<symbol id="icon-apps" viewBox="0 0 32 32">
<path d="M5.333 0h4c2.946 0 5.333 2.388 5.333 5.333v4c0 2.946-2.388 5.333-5.333 5.333h-4c-2.946 0-5.333-2.388-5.333-5.333v-4c0-2.946 2.388-5.333 5.333-5.333z"></path>
<path d="M22.667 0h4c2.945 0 5.333 2.388 5.333 5.333v4c0 2.946-2.388 5.333-5.333 5.333h-4c-2.945 0-5.333-2.388-5.333-5.333v-4c-0-2.946 2.388-5.333 5.333-5.333z"></path>
<path d="M5.333 17.333h4c2.946 0 5.333 2.388 5.333 5.333v4c0 2.945-2.388 5.333-5.333 5.333h-4c-2.946 0-5.333-2.388-5.333-5.333v-4c0-2.946 2.388-5.333 5.333-5.333z"></path>
<path d="M22.667 17.333h4c2.945 0 5.333 2.388 5.333 5.333v4c0 2.946-2.388 5.333-5.333 5.333h-4c-2.945 0-5.333-2.388-5.333-5.333v-4c-0-2.946 2.388-5.333 5.333-5.333z"></path>
</symbol>
<symbol id="icon-home" viewBox="0 0 32 32">
<path d="M22.667 23.99v8h5.333c2.209 0 4-1.791 4-4v-12.161c0-0.693-0.269-1.358-0.751-1.856l-11.331-12.249c-1.999-2.163-5.373-2.296-7.537-0.297-0.103 0.095-0.202 0.194-0.297 0.297l-11.311 12.245c-0.496 0.5-0.775 1.176-0.775 1.88v12.141c0 2.209 1.791 4 4 4h5.333v-8c0.025-3.636 2.96-6.605 6.505-6.69 3.663-0.088 6.801 2.931 6.829 6.69z"></path>
<path d="M16 19.99c-2.209 0-4 1.791-4 4v8h8v-8c0-2.209-1.791-4-4-4z"></path>
</symbol>
<symbol id="icon-user" viewBox="0 0 32 32">
<path d="M21.391 18.667h-10.781c-3.648 0.005-6.605 2.961-6.609 6.609v6.724h24v-6.724c-0.005-3.648-2.961-6.605-6.609-6.609h-0z"></path>
<path d="M24 8c0 4.418-3.582 8-8 8s-8-3.582-8-8c0-4.418 3.582-8 8-8s8 3.582 8 8z"></path>
</symbol>
</defs>
</svg>
